<?xml version="1.0" encoding="utf-8"?>
<!-- Generator: Adobe Illustrator 16.0.0, SVG Export Plug-In . SVG Version: 6.00 Build 0)  -->
<!DOCTYPE svg PUBLIC "-//W3C//DTD SVG 1.1//EN" "http://www.w3.org/Graphics/SVG/1.1/DTD/svg11.dtd">
<svg version="1.1" id="Calendar_Icon" xmlns="http://www.w3.org/2000/svg" xmlns:xlink="http://www.w3.org/1999/xlink" x="0px"
	 y="0px" width="24px" height="24px" viewBox="0 0 24 24" enable-background="new 0 0 24 24" xml:space="preserve">
<g>
	<g>
		<path fill="#9A9FBF" d="M19,22h2v-2h-2V22z M19,4.001h-2V3c0-0.551-0.448-1-1-1c-0.553,0-1,0.449-1,1v1.001H9V3
			c0-0.551-0.448-1-1-1C7.447,2,7,2.449,7,3v1.001H5c-1.104,0-2,0.895-2,2V20c0,1.105,0.896,2,2,2h12v-2H5V6.001h2V7
			c0,0.552,0.447,1,1,1c0.552,0,1-0.448,1-1V6.001h6V7c0,0.552,0.447,1,1,1c0.552,0,1-0.448,1-1V6.001h2V18h2V6.001
			C21,4.896,20.104,4.001,19,4.001z M8,18h2v-2H8V18z M13,18v-2h-2v2H13z M14,18h2v-2h-2V18z M13,13H8v2h5V13z M16,13h-2v2h2V13z
			 M13,10.001H8V12h5V10.001z M16,10.001h-2V12h2V10.001z"/>
	</g>
</g>
</svg>
